<svg viewBox="0 0 96 96" xmlns="http://www.w3.org/2000/svg" xmlns:xlink="http://www.w3.org/1999/xlink" id="Icons_Connections" overflow="hidden"><path d="M82.9 39.1C82.6 39.1 82.3 39.1 82 39.1L79.4 32.1C85.4 28.7 87.5 21.1 84.2 15.1 80.8 9.1 73.2 7 67.2 10.3 64.3 11.9 62.1 14.7 61.3 17.9L52 16.9C51.3 12.5 47.2 9.4 42.8 10.1 38.8 10.7 35.9 14.1 35.9 18.1 35.9 19.5 36.3 20.9 37 22.2L25.8 33.2C23.7 31.6 21.1 30.7 18.4 30.7 11.5 30.7 5.9 36.3 5.9 43.2 5.9 50.1 11.5 55.7 18.4 55.7L20.9 70.7C16.8 72.5 14.9 77.3 16.7 81.4 18.5 85.5 23.3 87.4 27.4 85.6 31.2 84 33.1 79.8 32 75.8L40.8 71.2C46.5 77.5 56.3 78 62.7 72.3 65.9 69.4 67.8 65.2 67.8 60.9 67.8 59.8 67.7 58.6 67.4 57.5L77.1 52.5C80.1 55.9 85.2 56.2 88.6 53.2 92 50.2 92.3 45.1 89.3 41.7 87.4 40.1 85.2 39.1 82.9 39.1L82.9 39.1ZM82.9 42.1C84.2 42.1 85.2 43.1 85.2 44.4 85.2 45.7 84.2 46.7 82.9 46.7 81.6 46.7 80.6 45.7 80.6 44.4 80.6 44.4 80.6 44.4 80.6 44.4 80.6 43.1 81.6 42.1 82.9 42.1L82.9 42.1ZM73.3 13.6C75.2 13.6 76.8 15.2 76.8 17.1 76.8 19 75.2 20.6 73.3 20.6 71.4 20.6 69.8 19 69.8 17.1 69.8 17.1 69.8 17.1 69.8 17.1 69.8 15.2 71.3 13.6 73.3 13.6ZM66.2 25C66.2 24.5 66.5 23.9 66.9 23.6 67.9 22.9 69.1 22.3 70.3 22 71.2 21.7 72.2 21.6 73.2 21.6 74.2 21.6 75.2 21.8 76.1 22 77.3 22.3 78.5 22.9 79.5 23.7 79.9 24 80.2 24.6 80.2 25.1L80.2 27.8 66.2 27.8 66.2 25ZM43.9 13C45.2 13 46.2 14 46.2 15.3 46.2 16.6 45.2 17.6 43.9 17.6 42.6 17.6 41.6 16.6 41.6 15.3 41.6 15.3 41.6 15.3 41.6 15.3 41.6 14.1 42.6 13 43.9 13L43.9 13ZM39.2 20.5C39.2 20.1 39.4 19.8 39.7 19.6 40.4 19.1 41.2 18.8 42 18.6 42.6 18.4 43.3 18.3 43.9 18.3 44.5 18.3 45.2 18.4 45.8 18.6 46.6 18.8 47.3 19.2 48 19.7 48.3 19.9 48.5 20.3 48.5 20.6L48.5 22.4 39.3 22.4 39.3 20.5ZM18.2 35.6C20.1 35.6 21.7 37.2 21.7 39.1 21.7 41 20.1 42.6 18.2 42.6 16.3 42.6 14.7 41 14.7 39.1 14.7 39.1 14.7 39.1 14.7 39.1 14.8 37.2 16.3 35.6 18.2 35.6L18.2 35.6ZM11.2 49.7 11.2 47C11.2 46.5 11.5 45.9 11.9 45.6 12.9 44.9 14.1 44.3 15.3 44 16.2 43.7 17.2 43.6 18.2 43.6 19.2 43.6 20.2 43.8 21.1 44 22.3 44.3 23.5 44.9 24.5 45.7 24.9 46 25.2 46.6 25.2 47.1L25.2 49.8 11.2 49.7ZM28.5 82.3 19.2 82.3 19.2 80.5C19.2 80.1 19.4 79.8 19.7 79.6 20.4 79.1 21.2 78.7 22 78.5 22.6 78.3 23.3 78.2 23.9 78.2 24.5 78.2 25.2 78.3 25.8 78.5 26.6 78.7 27.3 79.1 28 79.6 28.3 79.8 28.5 80.2 28.5 80.5L28.5 82.3ZM21.5 75.3C21.5 74 22.5 73 23.8 73 25.1 73 26.1 74 26.1 75.3 26.1 76.6 25.1 77.6 23.8 77.6 22.6 77.7 21.6 76.6 21.5 75.3L21.5 75.3ZM29.5 72.5C28.2 71.2 26.4 70.4 24.6 70.2L22.1 55.2C24.5 54.4 26.6 52.9 28.1 50.9L37.4 55.8C35.9 59.8 36.2 64.3 38.2 68.1L29.5 72.5ZM39.3 52.1 30.1 47.3C30.5 46 30.7 44.7 30.7 43.3 30.7 40.7 29.9 38.2 28.4 36.1L39.6 25.2C43.4 27.5 48.4 26.4 50.7 22.6 51 22.1 51.2 21.6 51.4 21.1L60.7 22.1C60.9 25.7 62.7 29.1 65.6 31.3L57.4 46.6C50.9 44 43.4 46.3 39.3 52.1L39.3 52.1ZM56.3 55.8C56.3 58.2 54.3 60.1 51.9 60.1 49.5 60.1 47.6 58.2 47.6 55.8 47.6 53.4 49.5 51.5 51.9 51.5 51.9 51.5 51.9 51.5 52 51.5 54.4 51.5 56.3 53.4 56.3 55.8L56.3 55.8ZM60.6 68.9 43.3 68.9 43.3 65.6C43.3 64.9 43.6 64.3 44.2 63.9 45.5 63 46.9 62.3 48.4 61.8 49.6 61.5 50.8 61.3 52 61.3 53.2 61.3 54.4 61.5 55.6 61.8 57.1 62.2 58.6 62.9 59.8 63.9 60.3 64.3 60.7 65 60.7 65.6L60.6 68.9ZM74.8 47.3C74.8 47.9 74.9 48.5 75.1 49.1L65.9 53.9C64.8 51.7 63.1 49.9 61.1 48.5L69.3 33.2C70.6 33.7 72 33.9 73.4 33.9 74.2 33.9 75 33.8 75.8 33.7L78.4 40.7C76 42.1 74.7 44.6 74.8 47.3ZM87.5 51.3 78.2 51.3 78.2 49.5C78.2 49.1 78.4 48.8 78.7 48.6 79.4 48.1 80.2 47.7 81 47.5 81.6 47.3 82.3 47.2 82.9 47.2 83.5 47.2 84.2 47.3 84.8 47.5 85.6 47.7 86.3 48.1 87 48.6 87.3 48.8 87.5 49.2 87.5 49.5L87.5 51.3Z" stroke="none" stroke-width="1" stroke-linecap="butt" fill="#FFFFFF" fill-opacity="1"/></svg>