<svg viewBox="0 0 30 30" xmlns="http://www.w3.org/2000/svg" xmlns:xlink="http://www.w3.org/1999/xlink" id="events" overflow="hidden"><rect x="18.4" y="18.5" width="3.4" height="3.4" stroke="none" stroke-width="1" stroke-linecap="butt" fill="#FFFFFF" fill-opacity="1"/><rect x="13.4" y="18.5" width="3.4" height="3.4" stroke="none" stroke-width="1" stroke-linecap="butt" fill="#FFFFFF" fill-opacity="1"/><rect x="18.4" y="13.5" width="3.4" height="3.4" stroke="none" stroke-width="1" stroke-linecap="butt" fill="#FFFFFF" fill-opacity="1"/><rect x="13.4" y="13.5" width="3.4" height="3.4" stroke="none" stroke-width="1" stroke-linecap="butt" fill="#FFFFFF" fill-opacity="1"/><rect x="13.4" y="8.5" width="3.4" height="3.4" stroke="none" stroke-width="1" stroke-linecap="butt" fill="#FFFFFF" fill-opacity="1"/><rect x="18.4" y="23.5" width="3.4" height="3.4" stroke="none" stroke-width="1" stroke-linecap="butt" fill="#FFFFFF" fill-opacity="1"/><rect x="23.4" y="13.5" width="3.4" height="3.4" stroke="none" stroke-width="1" stroke-linecap="butt" fill="#FFFFFF" fill-opacity="1"/><rect x="23.4" y="8.5" width="3.4" height="3.4" stroke="none" stroke-width="1" stroke-linecap="butt" fill="#FFFFFF" fill-opacity="1"/><rect x="18.4" y="8.5" width="3.4" height="3.4" stroke="none" stroke-width="1" stroke-linecap="butt" fill="#FFFFFF" fill-opacity="1"/><rect x="23.4" y="18.5" width="3.4" height="3.4" stroke="none" stroke-width="1" stroke-linecap="butt" fill="#FFFFFF" fill-opacity="1"/><rect x="3.4" y="18.5" width="3.4" height="3.4" stroke="none" stroke-width="1" stroke-linecap="butt" fill="#FFFFFF" fill-opacity="1"/><rect x="3.4" y="23.5" width="3.4" height="3.4" stroke="none" stroke-width="1" stroke-linecap="butt" fill="#FFFFFF" fill-opacity="1"/><rect x="13.4" y="23.5" width="3.4" height="3.4" stroke="none" stroke-width="1" stroke-linecap="butt" fill="#FFFFFF" fill-opacity="1"/><rect x="3.4" y="13.5" width="3.4" height="3.4" stroke="none" stroke-width="1" stroke-linecap="butt" fill="#FFFFFF" fill-opacity="1"/><path d="M29.9 1.5C29.8 1.3 29.6 1.1 29.5 0.9 29.4 0.7 29.3 0.5 29 0.4 28.7 0.3 28.6 0.2 28.4 0.2L28.4 0 1.6 0C1.4 0 1.1 0.1 1 0.2 0.9 0.3 0.6 0.5 0.5 0.7 0.4 0.9 0.3 1.1 0.1 1.4-0.1 1.7 0 1.7 0 2L0 28.4C0 28.6 0 28.8 0.1 29 0.2 29.1 0.4 29.4 0.5 29.5 0.6 29.6 0.8 29.7 1 29.9 1.2 30.1 1.4 30 1.6 30L28.4 30C28.7 30 28.8 30 29 29.9 29.2 29.8 29.4 29.7 29.5 29.5 29.6 29.3 29.8 29.1 29.9 29 30 28.8 30 28.6 30 28.4L30 2.1C30 1.9 30 1.7 29.9 1.5ZM28.4 28.3 1.8 28.3 1.8 6.7 28.4 6.7 28.4 28.3Z" stroke="none" stroke-width="1" stroke-linecap="butt" fill="#FFFFFF" fill-opacity="1"/><rect x="8.4" y="23.5" width="3.4" height="3.4" stroke="none" stroke-width="1" stroke-linecap="butt" fill="#FFFFFF" fill-opacity="1"/><rect x="8.4" y="8.5" width="3.4" height="3.4" stroke="none" stroke-width="1" stroke-linecap="butt" fill="#FFFFFF" fill-opacity="1"/><rect x="8.4" y="13.5" width="3.4" height="3.4" stroke="none" stroke-width="1" stroke-linecap="butt" fill="#FFFFFF" fill-opacity="1"/><rect x="8.4" y="18.5" width="3.4" height="3.4" stroke="none" stroke-width="1" stroke-linecap="butt" fill="#FFFFFF" fill-opacity="1"/><rect x="18.4" y="13.5" width="3.4" height="3.4" stroke="none" stroke-width="1" stroke-linecap="butt" fill="#FFFFFF" fill-opacity="1"/><rect x="8.4" y="18.5" width="3.4" height="3.4" stroke="none" stroke-width="1" stroke-linecap="butt" fill="#FFFFFF" fill-opacity="1"/></svg>