<svg viewBox="0 0 96 96" xmlns="http://www.w3.org/2000/svg" xmlns:xlink="http://www.w3.org/1999/xlink" id="Icons_Briefcase" overflow="hidden"><path d="M56 50.5C56 52.7 54.2 54.5 52 54.5L48 54.5C45.8 54.5 44 52.7 44 50.5L44 48.5 10 48.5 10 76.5C10 78.7 11.8 80.5 14 80.5L86 80.5C88.2 80.5 90 78.7 90 76.5L90 48.5 56 48.5 56 50.5Z" stroke="none" stroke-width="1" stroke-linecap="butt" fill="#FFFFFF" fill-opacity="1"/><path d="M86 24.5 66 24.5 66 18C66 14.1 62.9 11 59 11L41 11C37.1 11 34 14.1 34 18L34 24.5 14 24.5C11.8 24.5 10 26.3 10 28.5L10 44.5 44 44.5 44 42.5 56 42.5 56 44.5 90 44.5 90 28.5C90 26.3 88.2 24.5 86 24.5M40 24.5 40 18C40 17.4 40.4 17 41 17L59 17C59.6 17 60 17.4 60 18L60 24.5 40 24.5Z" stroke="none" stroke-width="1" stroke-linecap="butt" fill="#FFFFFF" fill-opacity="1"/></svg>